<?xml version="1.0" standalone="no"?>
<!DOCTYPE svg PUBLIC "-//W3C//DTD SVG 20010904//EN"
 "http://www.w3.org/TR/2001/REC-SVG-20010904/DTD/svg10.dtd">
<svg version="1.0" xmlns="http://www.w3.org/2000/svg"
 width="24.000000pt" height="20.000000pt" viewBox="0 0 24.000000 20.000000"
 preserveAspectRatio="xMidYMid meet">
<metadata>
Created by potrace 1.10, written by Peter Selinger 2001-2011
</metadata>
<g transform="translate(0.000000,20.000000) scale(0.100000,-0.100000)"
fill="#000000" stroke="none">
<path d="M17 184 c-4 -4 -7 -36 -7 -71 0 -67 -1 -66 58 -63 26 1 35 -3 39 -19
7 -27 19 -27 26 0 4 16 13 20 39 19 60 -4 59 -5 56 68 l-3 67 -101 3 c-55 1
-103 0 -107 -4z m45 -43 c24 -23 18 -54 -9 -49 -12 2 -19 14 -21 36 -4 37 1
39 30 13z m38 -23 c0 -38 -5 -34 -13 10 -4 21 -3 31 3 27 6 -3 10 -20 10 -37z
m49 10 c11 -10 14 -10 18 0 3 6 13 12 24 12 14 0 19 -7 19 -29 0 -40 -16 -48
-40 -19 -11 13 -19 17 -20 11 0 -16 -26 -17 -35 -3 -8 13 1 40 13 40 4 0 14
-6 21 -12z"/>
</g>
</svg>
