<?xml version="1.0" standalone="no"?>
<!DOCTYPE svg PUBLIC "-//W3C//DTD SVG 20010904//EN"
 "http://www.w3.org/TR/2001/REC-SVG-20010904/DTD/svg10.dtd">
<svg version="1.0" xmlns="http://www.w3.org/2000/svg"
 width="215.000000pt" height="64.000000pt" viewBox="0 0 215.000000 64.000000"
 preserveAspectRatio="xMidYMid meet">

<g transform="translate(0.000000,64.000000) scale(0.100000,-0.100000)"
fill="#000000" stroke="none">
<path d="M126 626 c-83 -31 -125 -102 -111 -193 6 -40 14 -55 55 -94 26 -25
58 -66 70 -92 25 -52 32 -55 106 -32 60 18 67 18 62 3 -2 -6 -26 -19 -54 -28
-29 -10 -50 -24 -52 -33 -5 -22 15 -21 83 4 58 21 80 54 56 83 -6 7 -9 20 -5
29 3 8 1 32 -5 52 -8 30 -7 44 6 68 10 21 14 47 11 84 -10 113 -119 187 -222
149z m121 -46 c48 -29 67 -72 58 -134 -4 -28 -8 -78 -9 -111 l-1 -59 -49 -19
c-57 -21 -76 -17 -76 15 0 13 -19 39 -48 67 -61 57 -72 78 -72 133 0 97 114
159 197 108z"/>
<path d="M163 470 c-28 -48 -29 -70 -3 -70 23 0 24 -4 11 -29 -11 -20 0 -43
15 -33 17 11 55 92 49 102 -3 6 -13 10 -20 10 -11 0 -13 8 -8 30 8 44 -17 39
-44 -10z"/>
<path d="M490 445 l0 -145 30 0 30 0 0 145 0 145 -30 0 -30 0 0 -145z"/>
<path d="M610 445 l0 -145 70 0 c88 0 140 24 164 74 33 70 12 160 -46 196 -26
15 -50 20 -110 20 l-78 0 0 -145z m169 59 c12 -15 21 -41 21 -59 0 -18 -9 -44
-21 -59 -17 -21 -29 -26 -65 -26 l-44 0 0 85 0 85 44 0 c36 0 48 -5 65 -26z"/>
<path d="M910 445 l0 -145 95 0 95 0 0 30 0 30 -65 0 -65 0 0 30 0 30 66 0 65
0 -3 28 c-3 26 -6 27 -65 30 -59 3 -63 4 -63 27 0 23 4 24 63 27 59 3 62 4 65
31 l3 27 -95 0 -96 0 0 -145z"/>
<path d="M1253 573 c-4 -10 -30 -72 -60 -137 -29 -66 -53 -123 -53 -128 0 -4
14 -8 30 -8 23 0 33 6 40 25 9 23 15 25 68 25 53 0 60 -2 70 -25 9 -19 19 -25
42 -25 l29 0 -35 78 c-87 191 -98 212 -111 212 -7 0 -17 -8 -20 -17z m42 -133
l16 -30 -31 0 c-16 0 -30 2 -30 5 0 7 23 55 26 55 2 0 10 -13 19 -30z"/>
<path d="M1400 560 c0 -29 2 -30 45 -30 l45 0 0 -115 0 -115 25 0 25 0 0 120
0 120 40 0 c36 0 40 3 40 25 l0 25 -110 0 -110 0 0 -30z"/>
<path d="M1670 445 l0 -145 90 0 90 0 0 30 0 30 -65 0 -65 0 0 30 0 30 65 0
c62 0 65 1 65 25 0 23 -4 24 -62 27 -63 3 -63 3 -63 33 0 30 0 30 63 33 58 3
62 4 62 27 0 25 -1 25 -90 25 l-90 0 0 -145z"/>
<path d="M1953 570 c-40 -24 -66 -73 -66 -125 0 -115 123 -185 221 -125 37 23
38 27 16 51 -15 16 -17 16 -50 -3 -94 -55 -187 76 -103 146 34 29 75 33 105
11 26 -20 37 -19 52 5 11 18 9 22 -20 40 -43 26 -113 26 -155 0z"/>
<path d="M563 135 c0 -27 2 -38 4 -22 2 15 2 37 0 50 -2 12 -4 0 -4 -28z"/>
<path d="M910 165 c0 -8 -6 -15 -12 -15 -9 0 -10 -2 -2 -8 7 -4 14 -16 17 -27
2 -11 5 -1 6 23 0 23 -1 42 -4 42 -3 0 -5 -7 -5 -15z"/>
<path d="M933 135 c0 -27 2 -38 4 -22 2 15 2 37 0 50 -2 12 -4 0 -4 -28z"/>
<path d="M1283 135 c0 -27 2 -39 4 -25 3 14 10 28 17 32 8 6 8 8 -1 8 -6 0
-14 8 -16 18 -3 9 -5 -5 -4 -33z"/>
<path d="M1956 164 c-8 -22 -7 -57 2 -71 5 -8 8 9 8 37 0 54 -1 58 -10 34z"/>
<path d="M2074 130 c0 -28 3 -45 8 -37 4 6 8 23 8 37 0 14 -4 31 -8 37 -5 8
-8 -9 -8 -37z"/>
<path d="M504 156 c-9 -24 4 -48 23 -44 12 2 18 12 18 28 0 29 -32 41 -41 16z
m31 -26 c-5 -8 -11 -8 -17 -2 -6 6 -7 16 -3 22 5 8 11 8 17 2 6 -6 7 -16 3
-22z"/>
<path d="M860 140 c0 -25 4 -30 23 -29 16 1 18 2 5 6 -10 2 -18 13 -18 23 0
10 8 21 18 23 13 4 11 5 -5 6 -19 1 -23 -4 -23 -29z"/>
<path d="M1225 160 c-11 -17 5 -51 23 -48 23 4 23 52 0 56 -9 2 -19 -2 -23 -8z
m35 -21 c0 -24 -23 -21 -28 4 -2 10 3 17 12 17 10 0 16 -9 16 -21z"/>
<path d="M1590 150 c0 -12 7 -20 18 -20 14 0 15 2 2 10 -13 8 -12 10 3 10 9 0
17 -6 17 -14 0 -8 -8 -17 -17 -19 -12 -3 -8 -5 9 -6 14 0 29 -7 31 -13 3 -7 5
7 5 32 0 41 -1 42 -8 15 -7 -28 -8 -28 -9 -5 -1 20 -7 26 -26 28 -19 1 -25 -3
-25 -18z"/>
<path d="M1990 166 c0 -9 37 -12 55 -5 15 6 11 8 -17 8 -21 1 -38 -1 -38 -3z"/>
<path d="M280 149 c-54 -22 -41 -55 14 -36 36 12 50 28 33 39 -15 9 -16 9 -47
-3z"/>
<path d="M1990 135 c-10 -13 -9 -15 8 -15 11 0 23 -8 25 -17 4 -17 5 -17 6 0
0 9 8 17 17 17 18 0 14 22 -6 28 -7 3 -10 0 -6 -7 5 -7 -1 -11 -16 -11 -18 0
-20 2 -8 10 8 5 10 10 4 10 -6 0 -17 -7 -24 -15z"/>
</g>
</svg>
